Patient4_TMGait_0pt7_02_left_40_GRF.mot
version=1
nRows=59
nColumns=19
inDegrees=no
endheader
time	F1x	F1y	F1z	M1x	M1y	M1z	F2x	F2y	F2z	M2x	M2y	M2z	EC1x	EC1y	EC1z	EC2x	EC2y	EC2z
45.82	-13.7019	17.5801	1.059	-5.1706	-4.3685	21.0371	-35.3116	727.591	-44.7643	248.036	55.7132	736.5866	-0.0592	0.0182	-0.0073	-0.0462	0.0165	0.9585
45.8315	-9.3017	12.5577	0.57961	-3.7803	-2.8124	14.8879	-33.0711	726.9739	-48.7392	249.3894	59.1469	731.2911	-0.0592	0.0182	-0.0073	-0.0462	0.0165	0.9585
45.843	-5.5906	8.3886	0.25913	-2.619	-1.5896	9.7899	-30.5427	727.4909	-51.7205	250.9754	61.2907	726.4847	-0.0592	0.0182	-0.0073	-0.0462	0.0165	0.9585
45.8545	-2.733	5.2712	0.064708	-1.7439	-0.70939	5.9739	-27.74	729.1978	-53.5289	252.7148	61.9804	722.4232	-0.0592	0.0182	-0.0073	-0.0462	0.0165	0.9585
45.866	-0.7701	3.1836	-0.033129	-1.1474	-0.14854	3.4376	-24.6922	731.9146	-54.2911	254.5114	61.3763	719.1112	-0.0592	0.0182	-0.0073	-0.0462	0.0165	0.9585
45.8775	0.46848	1.9448	-0.082165	-0.78288	0.17762	1.9193	-21.4252	735.2165	-54.2973	256.2307	59.8125	716.2723	-0.0592	0.0182	-0.0073	-0.0462	0.0165	0.9585
45.889	1.105	1.3267	-0.064608	-0.5872	0.28386	1.1741	-18.0226	738.6285	-53.8804	257.7392	57.6823	713.576	-0.0592	0.0182	-0.0073	-0.0462	0.0165	0.9585
45.9005	1.3472	1.0755	-0.02528	-0.4922	0.26151	0.85374	-14.5188	741.7276	-53.3025	258.9259	55.3	710.6883	-0.0592	0.0182	-0.0073	-0.0462	0.0165	0.9585
45.912	1.2863	0.97504	0.0813	-0.42869	0.098857	0.72772	-11.0075	744.1016	-52.7573	259.6888	52.924	707.2796	-0.0592	0.0182	-0.0073	-0.0462	0.0165	0.9585
45.9235	1.1025	0.80469	0.21292	-0.33125	-0.11796	0.5098	-7.5281	745.4238	-52.3382	259.9564	50.6892	703.0531	-0.0592	0.0182	-0.0073	-0.0462	0.0165	0.9585
45.935	0.81109	0.39217	0.39953	-0.14035	-0.40425	0.042672	-4.1119	745.464	-52.1128	259.6852	48.6879	697.8063	-0.0592	0.0182	-0.0073	-0.0462	0.0165	0.9585
45.9465	0.53443	-0.40682	0.60557	0.18888	-0.69788	-0.85236	-0.75885	744.0939	-52.0713	258.87	46.9137	691.3863	-0.0592	0.0182	-0.0073	-0.0462	0.0165	0.9585
45.958	0.26254	-1.6689	0.83502	0.68617	-1.0036	-2.2332	2.5712	741.4563	-52.2226	257.5818	45.3651	683.911	-0.0592	0.0182	-0.0073	-0.0462	0.0165	0.9585
45.9695	0.08333	-3.3997	1.0531	1.3533	-1.2705	-4.1376	5.8877	737.7703	-52.5272	255.9239	43.9968	675.5482	-0.0592	0.0182	-0.0073	-0.0462	0.0165	0.9585
45.981	0.015962	-5.4568	1.2226	2.141	-1.4422	-6.3929	9.2104	733.4181	-52.9564	254.0444	42.7656	666.6457	-0.0592	0.0182	-0.0073	-0.0462	0.0165	0.9585
45.9925	0.17798	-7.5304	1.2625	2.9278	-1.3939	-8.695	12.5546	728.783	-53.4721	252.0917	41.6211	657.5321	-0.0592	0.0182	-0.0073	-0.0462	0.0165	0.9585
46.004	0.63337	-9.0207	1.066	3.48	-0.97178	-10.3693	15.9092	724.2291	-54.037	250.2043	40.5254	648.5236	-0.0592	0.0182	-0.0073	-0.0462	0.0165	0.9585
46.0155	1.5299	-9.0263	0.49255	3.4359	0.031511	-10.437	19.3156	720.1276	-54.6436	248.5152	39.4542	639.9444	-0.0592	0.0182	-0.0073	-0.0462	0.0165	0.9585
46.027	2.9218	-6.2443	-0.60985	2.2807	1.8161	-7.4502	22.7418	716.7917	-55.2719	247.1378	38.3841	632.0771	-0.0592	0.0182	-0.0073	-0.0462	0.0165	0.9585
46.0385	4.9003	0.99529	-2.4115	-0.64883	4.5969	0.41104	26.1932	714.517	-55.9143	246.169	37.3083	625.1998	-0.0592	0.0182	-0.0073	-0.0462	0.0165	0.9585
46.05	7.3995	14.638	-5.0319	-6.1155	8.4808	15.3168	29.6204	713.4335	-56.5417	245.6474	36.2167	619.4464	-0.0592	0.0182	-0.0073	-0.0462	0.0165	0.9585
46.0615	10.218	36.6266	-8.5021	-14.8733	13.4182	39.4018	32.961	713.3929	-57.104	245.5145	35.0969	614.7147	-0.0592	0.0182	-0.0073	-0.0462	0.0165	0.9585
46.073	12.8741	68.3703	-12.6462	-27.4543	19.0215	74.271	36.1302	713.8541	-57.507	245.5774	33.908	610.583	-0.0592	0.0182	-0.0073	-0.0462	0.0165	0.9585
46.0845	14.5322	109.9414	-16.9668	-43.8538	24.4076	120.0266	39.0366	713.7696	-57.6009	245.4736	32.571	606.2078	-0.0592	0.0182	-0.0073	-0.0462	0.0165	0.9585
46.096	13.921	159.0464	-20.5164	-63.1185	28.0342	174.2052	41.6007	711.6508	-57.1863	244.6883	30.9589	600.3801	-0.0592	0.0182	-0.0073	-0.0462	0.0165	0.9585
46.1075	10.0279	210.3891	-22.0164	-83.0985	28.1073	231.042	43.7563	705.7037	-56.0471	242.6042	28.9263	591.6523	-0.0592	0.0182	-0.0073	-0.0462	0.0165	0.9585
46.119	3.691	256.2653	-19.986	-100.7106	23.3384	281.9824	45.4383	694.0915	-54.0245	238.5916	26.3837	578.5418	-0.0592	0.0182	-0.0073	-0.0462	0.0165	0.9585
46.1305	-2.8091	289.7669	-13.8526	-113.2862	14.0929	319.1883	46.6013	675.3422	-51.087	232.1465	23.352	559.8618	-0.0592	0.0182	-0.0073	-0.0462	0.0165	0.9585
46.142	-8.1489	309.6618	-5.3291	-120.4086	2.7601	341.0228	47.2514	648.7648	-47.3669	223.0234	19.9615	535.0861	-0.0592	0.0182	-0.0073	-0.0462	0.0165	0.9585
46.1535	-12.1006	319.9611	4.2395	-123.7193	-9.068	351.7924	47.3934	614.5033	-43.1118	211.2642	16.4105	504.3696	-0.0592	0.0182	-0.0073	-0.0462	0.0165	0.9585
46.165	-15.0443	327.1387	13.2037	-125.8227	-19.7768	358.6239	47.0924	573.5185	-38.5946	197.188	12.8987	468.5397	-0.0592	0.0182	-0.0073	-0.0462	0.0165	0.9585
46.1765	-17.282	336.9851	20.6231	-129.0367	-28.4822	367.8776	46.2941	527.1824	-33.9392	181.2736	9.5252	428.7605	-0.0592	0.0182	-0.0073	-0.0462	0.0165	0.9585
46.188	-19.0699	353.1005	25.9497	-134.8088	-34.7118	383.5036	44.9726	477.0847	-29.178	164.0749	6.3244	386.3707	-0.0592	0.0182	-0.0073	-0.0462	0.0165	0.9585
46.1995	-20.3204	376.7019	29.0801	-143.6225	-38.3518	406.6561	42.9996	424.7551	-24.245	146.1298	3.2728	342.651	-0.0592	0.0182	-0.0073	-0.0462	0.0165	0.9585
46.211	-20.9337	407.297	30.6418	-155.2484	-40.0233	436.8203	40.294	371.6228	-19.1636	127.9365	0.40868	298.7676	-0.0592	0.0182	-0.0073	-0.0462	0.0165	0.9585
46.2225	-20.7013	443.6432	31.285	-169.1421	-40.359	472.5244	36.8294	319.1524	-14.0596	109.9869	-2.1789	255.8981	-0.0592	0.0182	-0.0073	-0.0462	0.0165	0.9585
46.234	-19.6629	483.8997	32.059	-184.5031	-40.4592	511.8712	32.6764	268.638	-9.2117	92.7138	-4.3212	214.9945	-0.0592	0.0182	-0.0073	-0.0462	0.0165	0.9585
46.2455	-17.9807	525.7987	33.61	-200.4053	-41.073	552.4259	28.0284	221.3923	-4.9409	76.5433	-5.8559	177.0455	-0.0592	0.0182	-0.0073	-0.0462	0.0165	0.9585
46.257	-16.0364	567.4534	36.4508	-216.0785	-42.8561	592.2614	23.1665	178.4747	-1.5187	61.8302	-6.6929	142.7684	-0.0592	0.0182	-0.0073	-0.0462	0.0165	0.9585
46.2685	-13.9476	607.7598	40.408	-231.1214	-45.6937	630.1891	18.3738	140.7118	0.89951	48.8513	-6.8231	112.7349	-0.0592	0.0182	-0.0073	-0.0462	0.0165	0.9585
46.28	-11.8574	646.4634	45.0394	-245.469	-49.1848	665.9516	13.9341	108.4953	2.3232	37.7448	-6.3556	87.1577	-0.0592	0.0182	-0.0073	-0.0462	0.0165	0.9585
46.2915	-9.7528	683.346	49.8744	-259.0963	-52.8515	699.2959	9.9826	81.7523	2.9038	28.4959	-5.4463	65.9447	-0.0592	0.0182	-0.0073	-0.0462	0.0165	0.9585
46.303	-7.6779	717.9781	54.4594	-271.8741	-56.2503	729.8502	6.6548	60.0487	2.8978	20.9683	-4.3241	48.7147	-0.0592	0.0182	-0.0073	-0.0462	0.0165	0.9585
46.3145	-5.6294	749.4433	58.737	-283.4658	-59.3223	756.7475	3.9384	42.7546	2.5392	14.9571	-3.1533	34.9857	-0.0592	0.0182	-0.0073	-0.0462	0.0165	0.9585
46.326	-3.6832	776.6294	62.6504	-293.4406	-62.0282	779.0084	1.8348	29.2075	2.0117	10.2448	-2.0656	24.2203	-0.0592	0.0182	-0.0073	-0.0462	0.0165	0.9585
46.3375	-1.8039	798.6081	66.3802	-301.4178	-64.5424	795.8497	0.30417	18.8983	1.4399	6.6559	-1.1424	16.0314	-0.0592	0.0182	-0.0073	-0.0462	0.0165	0.9585
46.349	-0.095051	814.7924	69.9134	-307.1569	-66.8743	806.8504	-0.64885	11.3679	0.91301	4.0373	-0.44973	10.0275	-0.0592	0.0182	-0.0073	-0.0462	0.0165	0.9585
46.3605	1.4824	825.0743	73.2407	-310.5967	-69.0148	812.0463	-1.0969	6.2675	0.47266	2.265	0.0099431	5.9482	-0.0592	0.0182	-0.0073	-0.0462	0.0165	0.9585
46.372	2.8627	829.6865	76.2037	-311.8227	-70.8266	811.822	-1.1824	3.1679	0.14451	1.1899	0.2712	3.4536	-0.0592	0.0182	-0.0073	-0.0462	0.0165	0.9585
46.3835	4.0514	829.136	78.6328	-311.0289	-72.1625	806.7704	-1.085	1.5795	-0.076741	0.64168	0.39377	2.1937	-0.0592	0.0182	-0.0073	-0.0462	0.0165	0.9585
46.395	4.9803	824.089	80.4867	-308.4709	-73.0099	797.6663	-0.8652	1.037	-0.22432	0.45783	0.42936	1.7913	-0.0592	0.0182	-0.0073	-0.0462	0.0165	0.9585
46.4065	5.6543	815.3767	81.7052	-304.4725	-73.334	785.3496	-0.63992	1.1416	-0.29995	0.50045	0.40817	1.9291	-0.0592	0.0182	-0.0073	-0.0462	0.0165	0.9585
46.418	6.0555	803.9445	82.4377	-299.3989	-73.2935	770.764	-0.41004	1.5999	-0.3365	0.66463	0.36286	2.357	-0.0592	0.0182	-0.0073	-0.0462	0.0165	0.9585
46.4295	6.2894	790.7672	82.6934	-293.643	-72.8814	754.7941	-0.23074	2.222	-0.32648	0.88152	0.29755	2.9451	-0.0592	0.0182	-0.0073	-0.0462	0.0165	0.9585
46.441	6.4254	776.781	82.6348	-287.5782	-72.231	738.2807	-0.086279	2.8607	-0.29329	1.1008	0.22855	3.5491	-0.0592	0.0182	-0.0073	-0.0462	0.0165	0.9585
46.4525	6.6002	762.7626	82.275	-281.5274	-71.3134	721.8804	0.010185	3.4808	-0.24001	1.3075	0.16269	4.1638	-0.0592	0.0182	-0.0073	-0.0462	0.0165	0.9585
46.464	6.9007	749.3465	81.7238	-275.744	-70.2061	706.1276	0.073191	3.9954	-0.17731	1.4778	0.10495	4.684	-0.0592	0.0182	-0.0073	-0.0462	0.0165	0.9585
46.4755	7.3785	736.9282	81.023	-270.3943	-68.9255	691.3048	0.09002	4.4286	-0.12211	1.6168	0.078219	5.1454	-0.0592	0.0182	-0.0073	-0.0462	0.0165	0.9585
46.487	8.0715	725.7165	80.2415	-265.5661	-67.5222	677.561	0.085522	4.7173	-0.073717	1.7074	0.07477	5.452	-0.0592	0.0182	-0.0073	-0.0462	0.0165	0.9585
